<mxfile host="Electron" modified="2023-12-31T20:19:42.745Z" agent="Mozilla/5.0 (X11; Linux x86_64) AppleWebKit/537.36 (KHTML, like Gecko) draw.io/22.1.16 Chrome/120.0.6099.109 Electron/28.1.0 Safari/537.36" etag="LP8Ei86Saltclx8V0jeY" version="22.1.16" type="device">
  <diagram name="Page-1" id="2YBvvXClWsGukQMizWep">
    <mxGraphModel dx="1364" dy="1943" grid="1" gridSize="10" guides="1" tooltips="1" connect="1" arrows="1" fold="1" page="1" pageScale="1" pageWidth="850" pageHeight="1100" math="0" shadow="0">
      <root>
        <mxCell id="0" />
        <mxCell id="1" parent="0" />
        <mxCell id="1LKEmVipVnCDEiK2z2R7-52" value="AWSIM" style="shape=umlLifeline;perimeter=lifelinePerimeter;whiteSpace=wrap;html=1;container=0;dropTarget=0;collapsible=0;recursiveResize=0;outlineConnect=0;portConstraint=eastwest;newEdgeStyle={&quot;edgeStyle&quot;:&quot;elbowEdgeStyle&quot;,&quot;elbow&quot;:&quot;vertical&quot;,&quot;curved&quot;:0,&quot;rounded&quot;:0};fillColor=#f5f5f5;fontColor=#333333;strokeColor=#666666;rounded=1;strokeWidth=1.5;" parent="1" vertex="1">
          <mxGeometry x="585" y="-1030" width="100" height="550" as="geometry" />
        </mxCell>
        <mxCell id="1LKEmVipVnCDEiK2z2R7-51" value="" style="html=1;points=[];perimeter=orthogonalPerimeter;outlineConnect=0;targetShapes=umlLifeline;portConstraint=eastwest;newEdgeStyle={&quot;edgeStyle&quot;:&quot;elbowEdgeStyle&quot;,&quot;elbow&quot;:&quot;vertical&quot;,&quot;curved&quot;:0,&quot;rounded&quot;:0};strokeColor=default;fontFamily=Helvetica;fontSize=12;fontColor=default;fillColor=default;" parent="1" vertex="1">
          <mxGeometry x="630" y="-970" width="10" height="500" as="geometry" />
        </mxCell>
        <mxCell id="1LKEmVipVnCDEiK2z2R7-68" value="Autoware" style="shape=umlLifeline;perimeter=lifelinePerimeter;whiteSpace=wrap;html=1;container=0;dropTarget=0;collapsible=0;recursiveResize=0;outlineConnect=0;portConstraint=eastwest;newEdgeStyle={&quot;edgeStyle&quot;:&quot;elbowEdgeStyle&quot;,&quot;elbow&quot;:&quot;vertical&quot;,&quot;curved&quot;:0,&quot;rounded&quot;:0};fillColor=#D6F4FC;rounded=1;strokeColor=#6c8ebf;strokeWidth=1.5;" parent="1" vertex="1">
          <mxGeometry x="360" y="-1030" width="100" height="550" as="geometry" />
        </mxCell>
        <mxCell id="1LKEmVipVnCDEiK2z2R7-17" value="&lt;font face=&quot;monospace&quot;&gt;Tracked Objects&lt;/font&gt;" style="html=1;verticalAlign=bottom;endArrow=classicThin;edgeStyle=elbowEdgeStyle;elbow=vertical;curved=0;rounded=0;spacingBottom=0;spacingTop=-2;fillColor=#dae8fc;strokeColor=#6c8ebf;endFill=1;strokeWidth=1.2;" parent="1" edge="1">
          <mxGeometry relative="1" as="geometry">
            <mxPoint x="415" y="-670" as="sourcePoint" />
            <Array as="points">
              <mxPoint x="520" y="-670" />
            </Array>
            <mxPoint x="630" y="-670" as="targetPoint" />
            <mxPoint as="offset" />
          </mxGeometry>
        </mxCell>
        <mxCell id="1LKEmVipVnCDEiK2z2R7-35" value="" style="html=1;points=[];perimeter=orthogonalPerimeter;outlineConnect=0;targetShapes=umlLifeline;portConstraint=eastwest;newEdgeStyle={&quot;edgeStyle&quot;:&quot;elbowEdgeStyle&quot;,&quot;elbow&quot;:&quot;vertical&quot;,&quot;curved&quot;:0,&quot;rounded&quot;:0};" parent="1" vertex="1">
          <mxGeometry x="405" y="-970" width="10" height="500" as="geometry" />
        </mxCell>
        <mxCell id="1LKEmVipVnCDEiK2z2R7-64" value="Sensing&lt;br&gt;Perception" style="html=1;align=left;spacingLeft=2;endArrow=block;rounded=0;edgeStyle=orthogonalEdgeStyle;curved=0;rounded=0;labelBackgroundColor=none;" parent="1" target="1LKEmVipVnCDEiK2z2R7-63" edge="1">
          <mxGeometry relative="1" as="geometry">
            <mxPoint x="415" y="-730" as="sourcePoint" />
            <Array as="points">
              <mxPoint x="415" y="-720" />
              <mxPoint x="445" y="-720" />
              <mxPoint x="445" y="-700" />
            </Array>
          </mxGeometry>
        </mxCell>
        <mxCell id="1LKEmVipVnCDEiK2z2R7-63" value="" style="html=1;points=[];perimeter=orthogonalPerimeter;outlineConnect=0;targetShapes=umlLifeline;portConstraint=eastwest;newEdgeStyle={&quot;edgeStyle&quot;:&quot;elbowEdgeStyle&quot;,&quot;elbow&quot;:&quot;vertical&quot;,&quot;curved&quot;:0,&quot;rounded&quot;:0};" parent="1" vertex="1">
          <mxGeometry x="410" y="-710" width="10" height="20" as="geometry" />
        </mxCell>
        <mxCell id="1LKEmVipVnCDEiK2z2R7-71" value="update&lt;br&gt;loop" style="shape=umlFrame;whiteSpace=wrap;html=1;pointerEvents=0;strokeColor=default;fontFamily=Helvetica;fontSize=10;fontColor=default;fillColor=default;width=50;height=30;" parent="1" vertex="1">
          <mxGeometry x="100" y="-790" width="680" height="300" as="geometry" />
        </mxCell>
        <mxCell id="1LKEmVipVnCDEiK2z2R7-74" value="" style="html=1;points=[];perimeter=orthogonalPerimeter;outlineConnect=0;targetShapes=umlLifeline;portConstraint=eastwest;newEdgeStyle={&quot;edgeStyle&quot;:&quot;elbowEdgeStyle&quot;,&quot;elbow&quot;:&quot;vertical&quot;,&quot;curved&quot;:0,&quot;rounded&quot;:0};" parent="1" vertex="1">
          <mxGeometry x="635.01" y="-590" width="10" height="20" as="geometry" />
        </mxCell>
        <mxCell id="1LKEmVipVnCDEiK2z2R7-75" value="Spawn NPCVehicles" style="html=1;align=left;spacingLeft=2;endArrow=block;rounded=0;edgeStyle=orthogonalEdgeStyle;curved=0;rounded=0;" parent="1" target="1LKEmVipVnCDEiK2z2R7-74" edge="1">
          <mxGeometry x="-1" relative="1" as="geometry">
            <mxPoint x="640.01" y="-610" as="sourcePoint" />
            <Array as="points">
              <mxPoint x="640.01" y="-600" />
              <mxPoint x="670.01" y="-600" />
              <mxPoint x="670.01" y="-580" />
            </Array>
            <mxPoint as="offset" />
          </mxGeometry>
        </mxCell>
        <mxCell id="1LKEmVipVnCDEiK2z2R7-76" value="" style="html=1;points=[];perimeter=orthogonalPerimeter;outlineConnect=0;targetShapes=umlLifeline;portConstraint=eastwest;newEdgeStyle={&quot;edgeStyle&quot;:&quot;elbowEdgeStyle&quot;,&quot;elbow&quot;:&quot;vertical&quot;,&quot;curved&quot;:0,&quot;rounded&quot;:0};" parent="1" vertex="1">
          <mxGeometry x="635.01" y="-650" width="10" height="20" as="geometry" />
        </mxCell>
        <mxCell id="1LKEmVipVnCDEiK2z2R7-77" value="Environment Update" style="html=1;align=left;spacingLeft=2;endArrow=block;rounded=0;edgeStyle=orthogonalEdgeStyle;curved=0;rounded=0;spacingBottom=17;" parent="1" target="1LKEmVipVnCDEiK2z2R7-76" edge="1">
          <mxGeometry x="-0.7647" relative="1" as="geometry">
            <mxPoint x="640.01" y="-670" as="sourcePoint" />
            <Array as="points">
              <mxPoint x="640.01" y="-660" />
              <mxPoint x="670.01" y="-660" />
              <mxPoint x="670.01" y="-640" />
            </Array>
            <mxPoint as="offset" />
          </mxGeometry>
        </mxCell>
        <mxCell id="1LKEmVipVnCDEiK2z2R7-38" value="" style="html=1;points=[];perimeter=orthogonalPerimeter;outlineConnect=0;targetShapes=umlLifeline;portConstraint=eastwest;newEdgeStyle={&quot;edgeStyle&quot;:&quot;elbowEdgeStyle&quot;,&quot;elbow&quot;:&quot;vertical&quot;,&quot;curved&quot;:0,&quot;rounded&quot;:0};" parent="1" vertex="1">
          <mxGeometry x="410" y="-820" width="10" height="20" as="geometry" />
        </mxCell>
        <mxCell id="1LKEmVipVnCDEiK2z2R7-39" value="Manual Position initialization" style="html=1;align=left;spacingLeft=2;endArrow=block;rounded=0;edgeStyle=orthogonalEdgeStyle;curved=0;rounded=0;" parent="1" target="1LKEmVipVnCDEiK2z2R7-38" edge="1">
          <mxGeometry relative="1" as="geometry">
            <mxPoint x="415" y="-840" as="sourcePoint" />
            <Array as="points">
              <mxPoint x="415" y="-830" />
              <mxPoint x="445" y="-830" />
              <mxPoint x="445" y="-810" />
            </Array>
          </mxGeometry>
        </mxCell>
        <mxCell id="k5-iX3MmnJj92KhL8yC--1" value="" style="html=1;points=[];perimeter=orthogonalPerimeter;outlineConnect=0;targetShapes=umlLifeline;portConstraint=eastwest;newEdgeStyle={&quot;edgeStyle&quot;:&quot;elbowEdgeStyle&quot;,&quot;elbow&quot;:&quot;vertical&quot;,&quot;curved&quot;:0,&quot;rounded&quot;:0};" parent="1" vertex="1">
          <mxGeometry x="635" y="-820" width="10" height="20" as="geometry" />
        </mxCell>
        <mxCell id="k5-iX3MmnJj92KhL8yC--2" value="Environment Update" style="html=1;align=left;spacingLeft=2;endArrow=block;rounded=0;edgeStyle=orthogonalEdgeStyle;curved=0;rounded=0;spacingBottom=17;" parent="1" target="k5-iX3MmnJj92KhL8yC--1" edge="1">
          <mxGeometry x="-0.7647" relative="1" as="geometry">
            <mxPoint x="640" y="-840" as="sourcePoint" />
            <Array as="points">
              <mxPoint x="640" y="-830" />
              <mxPoint x="670" y="-830" />
              <mxPoint x="670" y="-810" />
            </Array>
            <mxPoint as="offset" />
          </mxGeometry>
        </mxCell>
        <mxCell id="ryksva9u688FMa-_JVyx-1" value="ROS2 PointCloud2 Publisher" style="shape=umlLifeline;perimeter=lifelinePerimeter;whiteSpace=wrap;html=1;container=0;dropTarget=0;collapsible=0;recursiveResize=0;outlineConnect=0;portConstraint=eastwest;newEdgeStyle={&quot;edgeStyle&quot;:&quot;elbowEdgeStyle&quot;,&quot;elbow&quot;:&quot;vertical&quot;,&quot;curved&quot;:0,&quot;rounded&quot;:0};fillColor=#D6F4FC;rounded=1;strokeColor=#6c8ebf;strokeWidth=1.5;" vertex="1" parent="1">
          <mxGeometry x="110" y="-1030" width="140" height="550" as="geometry" />
        </mxCell>
        <mxCell id="ryksva9u688FMa-_JVyx-2" value="" style="html=1;points=[];perimeter=orthogonalPerimeter;outlineConnect=0;targetShapes=umlLifeline;portConstraint=eastwest;newEdgeStyle={&quot;edgeStyle&quot;:&quot;elbowEdgeStyle&quot;,&quot;elbow&quot;:&quot;vertical&quot;,&quot;curved&quot;:0,&quot;rounded&quot;:0};" vertex="1" parent="1">
          <mxGeometry x="175" y="-970" width="10" height="500" as="geometry" />
        </mxCell>
        <mxCell id="ryksva9u688FMa-_JVyx-3" value="&lt;code&gt;Lidar PointCloud&lt;/code&gt;" style="html=1;verticalAlign=bottom;endArrow=classicThin;edgeStyle=elbowEdgeStyle;elbow=vertical;curved=0;rounded=0;spacingBottom=0;spacingTop=-2;fillColor=#f8cecc;strokeColor=#b85450;endFill=1;strokeWidth=1.2;" edge="1" parent="1" target="1LKEmVipVnCDEiK2z2R7-35">
          <mxGeometry relative="1" as="geometry">
            <mxPoint x="185" y="-740" as="sourcePoint" />
            <Array as="points">
              <mxPoint x="190" y="-740" />
            </Array>
            <mxPoint x="350" y="-740" as="targetPoint" />
          </mxGeometry>
        </mxCell>
        <mxCell id="ryksva9u688FMa-_JVyx-15" value="" style="html=1;points=[];perimeter=orthogonalPerimeter;outlineConnect=0;targetShapes=umlLifeline;portConstraint=eastwest;newEdgeStyle={&quot;edgeStyle&quot;:&quot;elbowEdgeStyle&quot;,&quot;elbow&quot;:&quot;vertical&quot;,&quot;curved&quot;:0,&quot;rounded&quot;:0};" vertex="1" parent="1">
          <mxGeometry x="635.01" y="-530" width="10" height="20" as="geometry" />
        </mxCell>
        <mxCell id="ryksva9u688FMa-_JVyx-16" value="Spawn NPCPedestrians" style="html=1;align=left;spacingLeft=2;endArrow=block;rounded=0;edgeStyle=orthogonalEdgeStyle;curved=0;rounded=0;" edge="1" parent="1" target="ryksva9u688FMa-_JVyx-15">
          <mxGeometry x="-1" relative="1" as="geometry">
            <mxPoint x="640.01" y="-550" as="sourcePoint" />
            <Array as="points">
              <mxPoint x="640.01" y="-540" />
              <mxPoint x="670.01" y="-540" />
              <mxPoint x="670.01" y="-520" />
            </Array>
            <mxPoint as="offset" />
          </mxGeometry>
        </mxCell>
      </root>
    </mxGraphModel>
  </diagram>
</mxfile>
